<svg xmlns="http://www.w3.org/2000/svg" width="417" height="202" viewBox="0 0 417 202">
    <defs>
        <filter id="base" width="552" height="337" x="-67.5" y="-40.501" filterUnits="userSpaceOnUse">
            <feOffset dy="30"/>
            <feGaussianBlur result="blur" stdDeviation="30"/>
            <feFlood flood-color="#3b2d8f" flood-opacity=".251"/>
            <feComposite in2="blur" operator="in"/>
            <feComposite in="SourceGraphic"/>
        </filter>
        <filter id="base-2" width="417" height="202" x="0" y="0" filterUnits="userSpaceOnUse">
            <feOffset dy="3"/>
            <feGaussianBlur result="blur-2" stdDeviation="7.5"/>
            <feFlood flood-color="#f7f7f7"/>
            <feComposite in2="blur-2" operator="in"/>
            <feComposite in="SourceGraphic"/>
        </filter>
        <filter id="_1" width="337.065" height="200.938" x="198.641" y="-14.586" filterUnits="userSpaceOnUse">
            <feOffset dy="3"/>
            <feGaussianBlur result="blur-3" stdDeviation="3"/>
            <feFlood flood-opacity=".161"/>
            <feComposite in2="blur-3" operator="in"/>
            <feComposite in="SourceGraphic"/>
        </filter>
        <linearGradient id="linear-gradient" x1=".5" x2=".5" y2="1" gradientUnits="objectBoundingBox">
            <stop offset="0" stop-color="#732cd0"/>
            <stop offset="1" stop-color="#5e01d6"/>
        </linearGradient>
        <clipPath id="clip-path"/>
    </defs>
    <g id="Main_Wallet_Card_Purple" data-name="Main Wallet Card Purple" transform="translate(22.5 19.499)">
        <g id="main" transform="translate(.146 .255)">
            <g id="base-4" data-name="base" transform="translate(-.146 -.255)">
                <g filter="url(#base-2)" transform="translate(-22.5 -19.5)">
                    <rect id="base-5" width="372" height="157" fill="url(#linear-gradient)" data-name="base" rx="20" transform="translate(22.5 19.5)"/>
                </g>
                <g id="Clip" clip-path="url(#clip-path)">
                    <path id="_3" fill="#7e41ce" d="M0 .026S60.509-2.84 73.526 51.867s45.994 88.242 119.112 61.622S354.4 94.9 354.4 94.9L280.87 8.829" data-name="3" opacity="0.508" transform="translate(82.188 -11.457)"/>
                    <path id="_2" fill="#7e41ce" d="M2022.11 1107s15.053 82.856 139.238 83.073 68.886 68.036 333.087 78.551-451.738 18.352-451.738 18.352" data-name="2" opacity="0.691" transform="translate(-2145.796 -1100.824)"/>
                    <g transform="translate(-22.5 -19.5)" style="mix-blend-mode:soft-light;isolation:isolate" filter="url(#_1)">
                        <path id="_1-2" fill="rgba(255,255,255,0.5)" d="M2550.73 1254.911s12.436-94.567-111.857-94.784-63.281-22.314-183.973-61.561 275.225-23.452 275.225-23.452" data-name="1" opacity="0.571" transform="translate(-2024.37 -1080.56)"/>
                    </g>
                </g>
            </g>
        </g>
    </g>
</svg>
